<?xml version="1.0" standalone="no"?>
<!DOCTYPE svg PUBLIC "-//W3C//DTD SVG 20010904//EN"
 "http://www.w3.org/TR/2001/REC-SVG-20010904/DTD/svg10.dtd">
<svg version="1.0" xmlns="http://www.w3.org/2000/svg"
 width="942.000000pt" height="942.000000pt" viewBox="0 0 942.000000 942.000000"
 preserveAspectRatio="xMidYMid meet">
<metadata>
Created by potrace 1.11, written by Peter Selinger 2001-2013
</metadata>
<g transform="translate(0.000000,942.000000) scale(0.100000,-0.100000)"
fill="#000000" stroke="none">
<path d="M4365 9404 c-345 -35 -533 -65 -791 -129 -835 -206 -1585 -628 -2194
-1235 -715 -712 -1178 -1623 -1330 -2619 -68 -443 -68 -979 0 -1422 190 -1242
867 -2353 1886 -3095 653 -475 1410 -767 2254 -871 208 -26 832 -26 1040 0
1100 135 2052 591 2810 1347 715 712 1178 1623 1330 2619 68 443 68 979 0
1422 -152 996 -615 1907 -1330 2619 -756 753 -1709 1211 -2800 1346 -98 12
-232 17 -485 19 -192 2 -368 1 -390 -1z m-1031 -2175 c14 -17 26 -37 26 -44 0
-8 8 -19 18 -24 22 -12 49 -94 63 -192 15 -112 23 -4352 8 -4444 -22 -131 -83
-275 -116 -275 -7 0 -13 -4 -13 -9 0 -13 -50 -18 -75 -8 -28 11 -69 79 -94
155 -23 69 -27 88 -38 207 -10 104 -9 4218 1 4310 4 39 12 79 16 90 5 11 17
51 26 90 28 116 68 175 120 175 24 0 39 -8 58 -31z m-782 -1146 c32 -29 66
-105 78 -174 8 -45 10 -399 6 -1214 -2 -632 -6 -1160 -8 -1172 -2 -11 -6 -20
-9 -18 -3 2 -11 -11 -17 -29 -19 -52 -66 -91 -112 -91 -77 0 -130 71 -150 198
-15 95 -13 2346 2 2364 6 7 8 13 4 13 -4 0 5 20 19 45 14 25 25 53 25 61 0 8
4 13 9 9 5 -3 13 0 16 6 21 32 102 34 137 2z m1415 7 c43 -26 79 -83 98 -155
13 -52 15 -207 15 -1236 0 -1144 -1 -1179 -20 -1240 -25 -82 -59 -132 -106
-154 -77 -36 -148 5 -201 119 l-28 61 0 1220 c0 1350 -5 1241 62 1338 47 67
117 86 180 47z m1366 -12 c45 -42 72 -90 87 -159 8 -40 10 -362 8 -1234 l-3
-1180 -33 -67 c-42 -86 -79 -118 -137 -118 -57 0 -103 39 -142 118 l-28 57 0
1220 0 1220 28 55 c46 93 79 120 143 120 33 0 49 -7 77 -32z m1414 12 c38 -23
88 -119 103 -199 14 -73 14 -2278 0 -2352 -23 -120 -103 -223 -174 -223 -51 0
-100 43 -138 122 l-33 67 0 1210 0 1210 29 63 c52 112 133 151 213 102z
m-2077 -632 c33 -17 51 -35 68 -68 l22 -44 0 -631 0 -631 -22 -44 c-31 -59
-75 -82 -149 -78 -65 5 -108 33 -133 88 -15 31 -16 103 -14 680 l3 645 25 34
c27 36 89 70 130 71 14 0 46 -10 70 -22z m1390 -7 c19 -10 45 -33 58 -51 l22
-33 0 -650 c0 -643 0 -650 -21 -684 -60 -97 -248 -97 -309 1 -20 33 -20 47
-20 681 0 593 1 649 17 676 10 16 21 29 24 29 4 0 15 7 23 15 44 45 136 52
206 16z m1380 7 c25 -13 55 -38 67 -57 l23 -34 0 -651 0 -651 -25 -38 c-32
-47 -71 -67 -130 -67 -63 0 -118 30 -141 77 -18 36 -19 71 -19 683 0 629 0
646 20 680 22 38 93 80 135 80 14 0 46 -10 70 -22z m-5640 -259 c-11 -8 -6 -9
20 -4 19 4 40 7 45 6 6 -1 25 -2 43 -4 20 -2 48 -16 68 -34 l34 -30 0 -399 0
-399 -25 -27 c-16 -17 -44 -31 -80 -39 -69 -15 -120 -2 -170 45 l-35 33 0 387
c0 212 4 386 8 386 5 0 15 11 22 25 7 13 22 27 32 31 10 3 16 9 13 14 -5 8 10
18 30 19 6 0 3 -4 -5 -10z m6278 -10 c20 -6 49 -23 65 -37 l27 -26 0 -399 c0
-238 -4 -406 -10 -416 -27 -51 -190 -69 -261 -29 -22 12 -42 31 -45 43 -3 11
-4 196 -2 411 3 423 1 408 59 443 33 20 119 26 167 10z"/>
</g>
</svg>
